<svg width="135.722900" height="32.516724" viewBox="0 0 135.723 32.5167" fill="none" xmlns="http://www.w3.org/2000/svg" xmlns:xlink="http://www.w3.org/1999/xlink">
	<desc>
			Created with Pixso.
	</desc>
	<defs/>
	<path id="Euphoria" d="M-1.16825e-05 25.5477L15.144 25.5477L15.144 22.8865L2.99386 22.8865L2.99386 14.4704L14.171 14.4704L14.171 11.8091L2.99386 11.8091L2.99386 3.43462L14.9527 3.43462L14.9527 0.773399L-1.16825e-05 0.773399L-1.16825e-05 25.5477ZM31.6889 17.9549C31.6889 21.4311 29.0277 23.0278 26.8987 23.0278C24.5285 23.0278 22.832 21.2897 22.832 18.5786L22.832 6.96905L19.9795 6.96905L19.9795 18.7699C19.9795 23.5185 22.4994 25.7888 25.9839 25.7888C28.7865 25.7888 30.6244 24.2919 31.4976 22.4041L31.6889 22.4041L31.6889 25.5477L34.5414 25.5477L34.5414 6.96905L31.6889 6.96905L31.6889 17.9549ZM39.7693 32.5167L42.6218 32.5167L42.6218 22.6952L42.8713 22.6952C43.495 23.7098 44.7092 25.9385 48.2852 25.9385C52.934 25.9385 56.1774 22.2128 56.1774 16.3083C56.1774 10.4536 52.934 6.72787 48.2353 6.72787C44.6094 6.72787 43.495 8.94833 42.8713 9.92133L42.5303 9.92133L42.5303 6.96905L39.7693 6.96905L39.7693 32.5167ZM42.5802 16.2584C42.5802 12.1002 44.4181 9.2893 47.9027 9.2893C51.5286 9.2893 53.3166 12.3414 53.3166 16.2584C53.3166 20.2252 51.4787 23.3688 47.9027 23.3688C44.468 23.3688 42.5802 20.4664 42.5802 16.2584ZM63.3793 14.3706C63.3793 11.1272 65.4501 9.2893 68.2693 9.2893C70.9554 9.2893 72.5771 10.9858 72.5771 13.9381L72.5771 25.5477L75.4296 25.5477L75.4296 13.7385C75.4296 8.96496 72.8931 6.72787 69.0926 6.72787C66.1653 6.72787 64.4937 7.95037 63.6288 9.87144L63.3793 9.87144L63.3793 0.773399L60.5268 0.773399L60.5268 25.5477L63.3793 25.5477L63.3793 14.3706ZM88.2065 25.9385C93.2378 25.9385 96.6226 22.113 96.6226 16.3582C96.6226 10.5451 93.2378 6.72787 88.2065 6.72787C83.1751 6.72787 79.7821 10.5451 79.7821 16.3582C79.7821 22.113 83.1751 25.9385 88.2065 25.9385ZM88.2065 23.3688C84.381 23.3688 82.6429 20.0839 82.6429 16.3582C82.6429 12.6325 84.381 9.2893 88.2065 9.2893C92.0237 9.2893 93.7701 12.6325 93.7701 16.3582C93.7701 20.0839 92.0237 23.3688 88.2065 23.3688ZM100.977 25.5477L103.83 25.5477L103.83 13.7884C103.83 11.2769 105.817 9.43899 108.529 9.43899C109.285 9.43899 110.075 9.58036 110.267 9.63026L110.267 6.72787C109.942 6.70292 109.194 6.67797 108.77 6.67797C106.541 6.67797 104.612 7.93374 103.93 9.77164L103.738 9.77164L103.738 6.96905L100.977 6.96905L100.977 25.5477ZM113.654 25.5477L116.507 25.5477L116.507 6.96905L113.654 6.96905L113.654 25.5477ZM115.11 3.86707C116.224 3.86707 117.139 3.00217 117.139 1.93768C117.139 0.873196 116.224 -1.52588e-05 115.11 -1.52588e-05C113.995 -1.52588e-05 113.072 0.873196 113.072 1.93768C113.072 3.00217 113.995 3.86707 115.11 3.86707ZM127.207 25.9801C130.442 25.9801 132.138 24.242 132.721 23.0278L132.862 23.0278L132.862 25.5477L135.723 25.5477L135.723 13.3061C135.723 7.40149 131.224 6.72787 128.845 6.72787C126.043 6.72787 122.849 7.69256 121.394 11.0773L124.105 12.0503C124.737 10.6947 126.226 9.2394 128.945 9.2394C131.573 9.2394 132.862 10.6365 132.862 13.015L132.862 13.1148C132.862 14.4953 131.465 14.3706 128.072 14.803C124.629 15.2521 120.862 16.0172 120.862 20.2751C120.862 23.901 123.672 25.9801 127.207 25.9801ZM127.639 23.4187C125.369 23.4187 123.722 22.4041 123.722 20.4165C123.722 18.2376 125.702 17.564 127.93 17.2729C129.136 17.1316 132.38 16.7906 132.862 16.2085L132.862 18.8198C132.862 21.1483 131.024 23.4187 127.639 23.4187Z" fill="#3C4242" fill-opacity="1.000000" fill-rule="evenodd"/>
</svg>
