<svg width="135.722824" height="32.516602" viewBox="0 0 135.723 32.5166" fill="none" xmlns="http://www.w3.org/2000/svg" xmlns:xlink="http://www.w3.org/1999/xlink">
	<desc>
			Created with Pixso.
	</desc>
	<defs/>
	<path id="Euphoria" d="M3.57628e-06 25.5476L15.144 25.5476L15.144 22.8864L2.99387 22.8864L2.99387 14.4703L14.171 14.4703L14.171 11.8091L2.99387 11.8091L2.99387 3.43456L14.9527 3.43456L14.9527 0.773338L3.57628e-06 0.773338L3.57628e-06 25.5476ZM31.6889 17.9548C31.6889 21.431 29.0277 23.0278 26.8987 23.0278C24.5286 23.0278 22.832 21.2897 22.832 18.5785L22.832 6.96898L19.9795 6.96898L19.9795 18.7698C19.9795 23.5184 22.4994 25.7888 25.9839 25.7888C28.7865 25.7888 30.6244 24.2918 31.4976 22.404L31.6889 22.404L31.6889 25.5476L34.5414 25.5476L34.5414 6.96898L31.6889 6.96898L31.6889 17.9548ZM39.7693 32.5167L42.6218 32.5167L42.6218 22.6951L42.8713 22.6951C43.495 23.7097 44.7092 25.9385 48.2852 25.9385C52.934 25.9385 56.1774 22.2128 56.1774 16.3082C56.1774 10.4535 52.934 6.72781 48.2353 6.72781C44.6094 6.72781 43.495 8.94827 42.8713 9.92127L42.5303 9.92127L42.5303 6.96898L39.7693 6.96898L39.7693 32.5167ZM42.5802 16.2583C42.5802 12.1001 44.4181 9.28923 47.9027 9.28923C51.5286 9.28923 53.3166 12.3413 53.3166 16.2583C53.3166 20.2252 51.4787 23.3687 47.9027 23.3687C44.468 23.3687 42.5802 20.4663 42.5802 16.2583ZM63.3793 14.3705C63.3793 11.1271 65.4501 9.28923 68.2693 9.28923C70.9555 9.28923 72.5771 10.9858 72.5771 13.938L72.5771 25.5476L75.4296 25.5476L75.4296 13.7385C75.4296 8.9649 72.8932 6.72781 69.0926 6.72781C66.1653 6.72781 64.4937 7.95031 63.6288 9.87138L63.3793 9.87138L63.3793 0.773338L60.5268 0.773338L60.5268 25.5476L63.3793 25.5476L63.3793 14.3705ZM88.2065 25.9385C93.2379 25.9385 96.6226 22.113 96.6226 16.3581C96.6226 10.545 93.2379 6.72781 88.2065 6.72781C83.1751 6.72781 79.7821 10.545 79.7821 16.3581C79.7821 22.113 83.1751 25.9385 88.2065 25.9385ZM88.2065 23.3687C84.381 23.3687 82.6429 20.0838 82.6429 16.3581C82.6429 12.6324 84.381 9.28923 88.2065 9.28923C92.0237 9.28923 93.7701 12.6324 93.7701 16.3581C93.7701 20.0838 92.0237 23.3687 88.2065 23.3687ZM100.977 25.5476L103.83 25.5476L103.83 13.7884C103.83 11.2768 105.817 9.43893 108.529 9.43893C109.285 9.43893 110.075 9.5803 110.267 9.6302L110.267 6.72781C109.942 6.70286 109.194 6.67791 108.77 6.67791C106.541 6.67791 104.612 7.93368 103.93 9.77158L103.738 9.77158L103.738 6.96898L100.977 6.96898L100.977 25.5476ZM113.654 25.5476L116.507 25.5476L116.507 6.96898L113.654 6.96898L113.654 25.5476ZM115.11 3.867C116.224 3.867 117.139 3.00211 117.139 1.93762C117.139 0.873135 116.224 -7.62939e-05 115.11 -7.62939e-05C113.995 -7.62939e-05 113.072 0.873135 113.072 1.93762C113.072 3.00211 113.995 3.867 115.11 3.867ZM127.207 25.9801C130.442 25.9801 132.139 24.2419 132.721 23.0278L132.862 23.0278L132.862 25.5476L135.723 25.5476L135.723 13.306C135.723 7.40143 131.224 6.72781 128.845 6.72781C126.043 6.72781 122.849 7.6925 121.394 11.0772L124.105 12.0502C124.737 10.6947 126.226 9.23934 128.945 9.23934C131.573 9.23934 132.862 10.6365 132.862 13.0149L132.862 13.1147C132.862 14.4952 131.465 14.3705 128.072 14.8029C124.629 15.252 120.862 16.0171 120.862 20.2751C120.862 23.901 123.673 25.9801 127.207 25.9801ZM127.639 23.4186C125.369 23.4186 123.722 22.404 123.722 20.4164C123.722 18.2376 125.702 17.564 127.93 17.2729C129.136 17.1315 132.38 16.7905 132.862 16.2084L132.862 18.8197C132.862 21.1483 131.024 23.4186 127.639 23.4186Z" fill="#3C4242" fill-opacity="1.000000" fill-rule="evenodd"/>
</svg>
