<svg width="53.804382" height="7.426270" viewBox="0 0 53.8044 7.42627" fill="none" xmlns="http://www.w3.org/2000/svg" xmlns:xlink="http://www.w3.org/1999/xlink">
	<desc>
			Created with Pixso.
	</desc>
	<defs/>
	<path id="Vector" d="M5.17877 5.99316C5.01514 5.99316 4.8262 5.92871 4.61035 5.80029C4.39526 5.67139 4.16635 5.50073 3.92517 5.28809C3.68396 5.0752 3.44662 4.84399 3.21234 4.59375C2.97882 4.34399 2.76297 4.09521 2.56635 3.84692C2.36969 3.59961 2.20454 3.37915 2.07089 3.18652L0.990891 5.51782C0.93866 5.63135 0.857239 5.71216 0.745865 5.75879C0.634476 5.80566 0.513885 5.83423 0.384064 5.84424C0.254257 5.85425 0.125977 5.85889 0 5.85889C0.0960236 5.72046 0.195099 5.56152 0.294968 5.3833C0.395584 5.20508 0.513885 4.98999 0.651382 4.7373C0.788879 4.48462 0.95018 4.17798 1.13608 3.81641C1.32196 3.45532 1.54242 3.02271 1.79897 2.52051C2.05476 2.01807 2.35739 1.42822 2.70691 0.75C2.72919 0.709961 2.75912 0.654541 2.79602 0.583252C2.83289 0.511719 2.85208 0.445801 2.85208 0.386475C2.85208 0.332031 2.83365 0.289062 2.79602 0.256836C2.75912 0.224609 2.68848 0.208252 2.58478 0.208252C2.40656 0.208252 2.23373 0.256836 2.06705 0.352783C1.90036 0.44873 1.75134 0.571777 1.62154 0.720703C1.49171 0.868896 1.38956 1.02271 1.31505 1.18091C1.24054 1.33911 1.20366 1.48047 1.20366 1.604C1.20366 1.69849 1.22211 1.78223 1.25897 1.85669C1.01393 1.85669 0.84111 1.81616 0.741257 1.73462C0.640625 1.65332 0.590698 1.55249 0.590698 1.43359C0.590698 1.26538 0.664429 1.09717 0.813461 0.928955C0.9617 0.760742 1.15297 0.605469 1.38725 0.464844C1.62154 0.323486 1.86656 0.211426 2.12236 0.126953C2.37814 0.0432129 2.61011 0.000976562 2.8183 0.000976562C3.01877 0.000976562 3.15396 0.0378418 3.22464 0.112305C3.29529 0.186768 3.33063 0.268311 3.33063 0.357422C3.33063 0.411865 3.32141 0.466553 3.30298 0.520996C3.28455 0.575439 3.26379 0.627686 3.24152 0.677002L2.30594 2.69629C2.40964 2.59717 2.54559 2.50586 2.71228 2.42139C2.87897 2.33765 3.06332 2.24097 3.26379 2.13184C3.59793 1.95361 3.9559 1.74536 4.33841 1.50806C4.72095 1.27075 5.08658 1.02026 5.43533 0.758301C5.78406 0.495605 6.07364 0.243652 6.30408 0.000976562C6.34094 0.0310059 6.36707 0.0822754 6.38242 0.156982C6.39703 0.231445 6.40469 0.28833 6.40469 0.327393C6.40469 0.480957 6.31021 0.64917 6.12048 0.832031C5.93076 1.01489 5.6842 1.20459 5.38 1.39966C5.07584 1.5957 4.7417 1.78833 4.37759 1.979C4.01349 2.16943 3.65555 2.34912 3.30298 2.51733C2.95041 2.68555 2.63239 2.83154 2.35049 2.95532C2.57324 3.20801 2.79062 3.44751 3.00186 3.67578C3.2131 3.90308 3.44354 4.12598 3.69241 4.34399C3.94131 4.56226 4.23242 4.78491 4.56656 5.01221C4.9007 5.23975 5.30551 5.48462 5.78021 5.74731C5.72797 5.81201 5.64655 5.86865 5.53519 5.91797C5.4238 5.96851 5.30475 5.99316 5.17877 5.99316Z" fill="#3C4242" fill-opacity="1.000000" fill-rule="nonzero"/>
	<path id="Vector" d="M11.1375 5.71094C10.6843 5.71094 10.3486 5.61963 10.1297 5.43604C9.91077 5.25317 9.8009 5.03271 9.8009 4.77539C9.48138 5.05737 9.1142 5.27783 8.69864 5.43604C8.28308 5.59424 7.86292 5.67334 7.44043 5.67334C6.98724 5.67334 6.64771 5.59033 6.42111 5.42456C6.19452 5.25854 6.0816 5.0542 6.0816 4.81226C6.0816 4.5896 6.16534 4.35449 6.33203 4.10718C6.49948 3.85986 6.72223 3.6272 7.00031 3.40894C7.27835 3.19165 7.58484 3.01416 7.91898 2.87817C8.25311 2.74219 8.5834 2.67383 8.91064 2.67383C9.08118 2.67383 9.23941 2.70386 9.38382 2.76294C9.52899 2.82202 9.6012 2.94336 9.6012 3.12695C9.6012 3.31519 9.51749 3.49194 9.3508 3.65771C9.18411 3.82373 8.96442 3.97119 8.69403 4.09937C8.42288 4.22852 8.12561 4.33301 7.80301 4.41528C7.48038 4.49731 7.15854 4.54736 6.83975 4.56738C6.82516 4.61719 6.81363 4.66406 6.80597 4.7085C6.79828 4.75317 6.79443 4.79541 6.79443 4.83447C6.79443 4.93359 6.82056 5.03125 6.87277 5.12793C6.92426 5.22485 7.01334 5.30396 7.14011 5.36548C7.26608 5.42749 7.44427 5.45825 7.67471 5.45825C8.06799 5.45825 8.45822 5.36548 8.84457 5.18018C9.23019 4.99438 9.56818 4.76538 9.85776 4.49365C9.92459 4.29077 10.0436 4.08789 10.2142 3.88452C10.3847 3.68164 10.5913 3.49731 10.8325 3.3313C11.0737 3.16553 11.3357 3.03174 11.6176 2.93042C11.8994 2.8291 12.186 2.77832 12.4756 2.77832C12.6461 2.77832 12.8043 2.80835 12.9487 2.86743C13.0931 2.92651 13.1661 3.04785 13.1661 3.23145C13.1661 3.48413 13.0378 3.70532 12.782 3.896C12.5262 4.08643 12.1975 4.23853 11.7965 4.35303C11.3956 4.46655 10.9839 4.53882 10.5606 4.56812C10.546 4.61792 10.5345 4.66479 10.5268 4.70947C10.5191 4.75391 10.5153 4.79614 10.5153 4.83545C10.5153 4.93457 10.5391 5.03589 10.5875 5.13965C10.6359 5.24316 10.7211 5.32861 10.8433 5.39526C10.9662 5.46216 11.1421 5.49512 11.3725 5.49512C11.6921 5.49512 12.0108 5.43213 12.3304 5.30615C12.6499 5.18018 12.9464 5.0144 13.2214 4.80859C13.4964 4.60327 13.7261 4.38135 13.912 4.14404L14.0456 4.21094C13.8452 4.50806 13.587 4.76929 13.2713 4.99438C12.9556 5.21948 12.6146 5.39526 12.2466 5.52124C11.878 5.64795 11.5085 5.71094 11.1375 5.71094ZM6.89429 4.42603C7.09479 4.38135 7.32138 4.31616 7.57333 4.22925C7.82605 4.14258 8.06876 4.04028 8.30304 3.92139C8.53732 3.80225 8.73013 3.67163 8.88223 3.52808C9.0343 3.38428 9.11035 3.23389 9.11035 3.07471C9.11035 3.02026 9.09576 2.97803 9.0658 2.94873C9.03586 2.91895 8.97287 2.9043 8.87683 2.9043C8.69864 2.9043 8.50891 2.95044 8.30844 3.04175C8.10794 3.13306 7.91513 3.25293 7.72925 3.4021C7.54337 3.55029 7.37668 3.71387 7.22766 3.89209C7.07941 4.06958 6.96802 4.2478 6.89429 4.42603ZM10.6144 4.42603C10.8148 4.38135 11.0338 4.32227 11.2719 4.2478C11.5092 4.17334 11.7358 4.08569 11.9517 3.98438C12.1668 3.88281 12.345 3.76685 12.4863 3.6355C12.6269 3.50415 12.6975 3.35986 12.6975 3.20142C12.6975 3.14697 12.6791 3.10083 12.6415 3.06396C12.6046 3.0271 12.5378 3.00879 12.441 3.00879C12.2036 3.00879 11.964 3.07788 11.7228 3.2168C11.4816 3.35522 11.2627 3.53271 11.0653 3.74756C10.8686 3.96191 10.7181 4.18848 10.6144 4.42603Z" fill="#3C4242" fill-opacity="1.000000" fill-rule="nonzero"/>
	<path id="Vector" d="M12.976 7.42627C12.9169 7.42627 12.8593 7.40576 12.8032 7.36328C12.7471 7.32104 12.7049 7.27661 12.6749 7.22974C12.645 7.18286 12.6304 7.15454 12.6304 7.14453C12.7341 6.90186 12.8362 6.68506 12.9369 6.49463C13.0375 6.3042 13.1373 6.10815 13.238 5.90771C13.3378 5.70728 13.4369 5.47217 13.5329 5.20264C13.6297 4.93311 13.7296 4.59741 13.834 4.19629C13.9377 3.79541 14.0422 3.29761 14.1459 2.70386C14.1536 2.65942 14.1682 2.6272 14.1905 2.60718C14.2127 2.58716 14.268 2.57715 14.3571 2.57715C14.5499 2.57715 14.6874 2.61328 14.7696 2.68457C14.851 2.7561 14.8918 2.83447 14.8918 2.91821C14.8918 2.9873 14.8695 3.11108 14.8249 3.28931C14.7804 3.46753 14.7174 3.67798 14.636 3.92065C14.7619 3.75708 14.9202 3.59106 15.1091 3.42285C15.2981 3.25464 15.5155 3.11328 15.7605 2.99951C16.0056 2.88599 16.2729 2.8291 16.5624 2.8291C16.8889 2.8291 17.1585 2.90747 17.3698 3.0625C17.581 3.21851 17.687 3.42285 17.687 3.67554C17.687 3.86841 17.6217 4.07275 17.4919 4.28784C17.3621 4.50293 17.18 4.7063 16.9465 4.89697C16.713 5.0874 16.4357 5.24268 16.1169 5.36084C15.7974 5.47998 15.4448 5.53906 15.0592 5.53906C14.8656 5.53906 14.7105 5.52441 14.5914 5.49463C14.4724 5.4646 14.4132 5.4353 14.4132 5.40552C14.4132 5.3855 14.4409 5.37476 14.4969 5.37158C14.553 5.36938 14.6175 5.36768 14.692 5.36768C14.9893 5.36768 15.2728 5.31934 15.5439 5.22266C15.8151 5.12573 16.0578 4.99829 16.2736 4.84009C16.4887 4.68188 16.6577 4.50586 16.7806 4.31323C16.9027 4.12036 16.9642 3.92993 16.9642 3.7417C16.9642 3.5835 16.9142 3.44824 16.8136 3.33691C16.7138 3.22534 16.5517 3.17017 16.3289 3.17017C16.1361 3.17017 15.9449 3.21094 15.7552 3.29224C15.5654 3.37378 15.3872 3.47827 15.2205 3.60425C15.0531 3.73022 14.9048 3.86157 14.775 3.99731C14.6452 4.1333 14.5469 4.25635 14.48 4.3645C14.3464 4.7356 14.2127 5.09351 14.0791 5.43774C13.9454 5.78174 13.8171 6.09375 13.695 6.37329C13.5721 6.65283 13.4615 6.88184 13.3609 7.06006C13.261 7.23828 13.1773 7.34717 13.1104 7.38647C13.0721 7.41406 13.0275 7.42627 12.976 7.42627Z" fill="#3C4242" fill-opacity="1.000000" fill-rule="nonzero"/>
	<path id="Vector" d="M21.7303 5.53979C21.4407 5.53979 21.2249 5.479 21.0843 5.35767C20.9429 5.23633 20.873 5.08887 20.873 4.91602C20.873 4.80225 20.9045 4.65869 20.9675 4.48511C21.0305 4.31226 21.1142 4.13013 21.2179 3.9397C21.3216 3.74927 21.4422 3.56958 21.5797 3.40137C21.7172 3.23315 21.864 3.09546 22.0199 2.98877C22.1758 2.88281 22.3279 2.8291 22.4769 2.8291C22.5437 2.8291 22.6013 2.84277 22.6497 2.86963C22.6981 2.89648 22.722 2.93799 22.722 2.99194C22.722 3.05103 22.6643 3.14771 22.5491 3.28149C22.4339 3.41504 22.2987 3.5686 22.1428 3.74146C21.9868 3.91504 21.8517 4.09644 21.7364 4.28687C21.6212 4.47754 21.5636 4.65942 21.5636 4.83301C21.5636 5.01123 21.6082 5.13037 21.6973 5.18945C21.7863 5.24854 21.9239 5.27856 22.1097 5.27856C22.3625 5.27856 22.6313 5.19482 22.9171 5.02588C23.2028 4.85767 23.5054 4.56348 23.825 4.14258L23.9248 4.21704C23.7098 4.64258 23.3994 4.96973 22.9946 5.19727C22.5891 5.42603 22.1681 5.53979 21.7303 5.53979ZM23.0661 2.13916C22.947 2.13916 22.8418 2.11914 22.7488 2.08008C22.6559 2.04004 22.6098 1.97876 22.6098 1.89429C22.6098 1.79053 22.7004 1.69995 22.8825 1.62305C23.0645 1.54614 23.2443 1.50781 23.4225 1.50781C23.5339 1.50781 23.623 1.52539 23.6898 1.56006C23.7566 1.59473 23.7896 1.65454 23.7896 1.73828C23.7896 1.83203 23.7136 1.92261 23.5615 2.00952C23.4102 2.09619 23.2451 2.13916 23.0661 2.13916Z" fill="#3C4242" fill-opacity="1.000000" fill-rule="nonzero"/>
	<path id="Vector" d="M24.5582 5.68872C24.2387 5.68872 23.9937 5.62646 23.8231 5.50293C23.6526 5.37915 23.5673 5.19629 23.5673 4.95361C23.5673 4.73633 23.6288 4.46753 23.7509 4.14795C23.873 3.82837 24.0274 3.50122 24.2133 3.16382C24.1388 3.15405 24.0689 3.14551 24.0021 3.1377C23.9353 3.13013 23.8723 3.11938 23.8131 3.10474L23.8131 2.97119C23.8723 2.97583 23.9429 2.9812 24.0244 2.98584C24.1058 2.99023 24.1987 2.99561 24.3024 3.00024C24.4583 2.73291 24.6258 2.47412 24.8033 2.22461C24.9814 1.97485 25.1581 1.7522 25.3325 1.55615C25.5069 1.36108 25.6743 1.20435 25.8341 1.08838C25.9939 0.972412 26.1291 0.914062 26.2404 0.914062C26.2996 0.914062 26.3534 0.927979 26.4017 0.954834C26.4501 0.981689 26.4739 1.02319 26.4739 1.0769C26.4739 1.16138 26.3964 1.2981 26.2404 1.4895C26.0845 1.67993 25.8917 1.90649 25.6613 2.16846C25.4308 2.43115 25.2081 2.71533 24.993 3.02271C25.0598 3.02271 25.1282 3.02271 25.1989 3.02271C25.2695 3.02271 25.3379 3.02271 25.4047 3.02271C25.6497 3.02271 25.9078 3.02026 26.179 3.01489C26.4501 3.01025 26.7228 2.99731 26.9978 2.97803L26.9978 3.11182C26.5892 3.1416 26.2235 3.16382 25.9009 3.17847C25.5783 3.19312 25.2903 3.20068 25.0375 3.20068C25.0076 3.20068 24.9799 3.20068 24.9538 3.20068C24.9277 3.20068 24.9 3.20068 24.8701 3.20068C24.6996 3.46338 24.5544 3.73315 24.4361 4.0105C24.317 4.2876 24.2579 4.55737 24.2579 4.82007C24.2579 5.03271 24.3063 5.18481 24.4023 5.27637C24.4983 5.36768 24.6581 5.41382 24.8816 5.41382C25.268 5.41382 25.6467 5.30005 26.0177 5.07202C26.3887 4.84473 26.7151 4.53516 26.9978 4.14404L27.1422 4.21851C26.964 4.49585 26.739 4.74561 26.4686 4.96826C26.1974 5.19092 25.8986 5.36694 25.5721 5.49512C25.2449 5.62427 24.9077 5.68872 24.5582 5.68872Z" fill="#3C4242" fill-opacity="1.000000" fill-rule="nonzero"/>
	<path id="Vector" d="M30.8737 5.76245C30.5173 5.76245 30.2201 5.68335 29.9827 5.52515C29.7453 5.36694 29.6263 5.12964 29.6263 4.81226C29.6263 4.56494 29.6985 4.32373 29.8437 4.08789C29.9881 3.85278 30.1794 3.6416 30.4174 3.45337C30.6548 3.26514 30.9183 3.11548 31.2079 3.00415C31.4975 2.89282 31.7832 2.8374 32.0659 2.8374C32.3701 2.8374 32.5782 2.89648 32.6896 3.01562C32.801 3.13477 32.8563 3.2583 32.8563 3.38672C32.8563 3.53027 32.8064 3.65625 32.7057 3.76538C32.6059 3.87427 32.4699 3.92896 32.2994 3.92896C32.1734 3.92896 32.0659 3.89209 31.976 3.81763C32.0874 3.77832 32.1842 3.69775 32.2656 3.57642C32.347 3.45508 32.3885 3.33984 32.3885 3.23071C32.3885 3.17163 32.3716 3.12549 32.3386 3.09326C32.3048 3.06104 32.2402 3.04468 32.1435 3.04468C31.943 3.04468 31.7371 3.104 31.5251 3.2229C31.3139 3.34204 31.1165 3.49487 30.9352 3.68311C30.7531 3.87134 30.6049 4.06958 30.4897 4.27686C30.3745 4.48511 30.3168 4.68018 30.3168 4.86377C30.3168 5.01733 30.3729 5.15796 30.4843 5.28687C30.5957 5.41528 30.8108 5.47974 31.1303 5.47974C31.4276 5.47974 31.7263 5.42529 32.0267 5.31616C32.3271 5.20703 32.6074 5.05127 32.8678 4.84839C33.1274 4.64551 33.3356 4.40747 33.4915 4.1355L33.636 4.20996C33.4654 4.50732 33.2311 4.77319 32.9346 5.00806C32.6374 5.24316 32.3109 5.42749 31.9545 5.56128C31.5973 5.69556 31.2371 5.76245 30.8737 5.76245Z" fill="#3C4242" fill-opacity="1.000000" fill-rule="nonzero"/>
	<path id="Vector" d="M34.2039 5.56982C33.8844 5.56982 33.6563 5.49683 33.5188 5.35083C33.3813 5.20483 33.3129 5.02295 33.3129 4.80542C33.3129 4.56812 33.3798 4.2854 33.5134 3.95898C33.6471 3.63257 33.8237 3.28833 34.0427 2.92651C34.2616 2.56567 34.5012 2.21289 34.7609 1.86816C35.0205 1.52393 35.2801 1.21143 35.5405 0.928711C35.8001 0.646729 36.0398 0.420898 36.2587 0.252686C36.4776 0.0844727 36.6505 0 36.7765 0C36.8579 0 36.9247 0.0307617 36.9769 0.0930176C37.0291 0.155273 37.0699 0.229004 37.0998 0.315674C37.129 0.402588 37.1444 0.47998 37.1444 0.549316C37.1444 0.682861 37.0945 0.857178 36.9938 1.073C36.894 1.28809 36.7526 1.52856 36.5706 1.7937C36.3885 2.05859 36.1735 2.32593 35.9246 2.59546C35.6757 2.86523 35.4046 3.12402 35.1119 3.37134C34.8185 3.61865 34.5089 3.83154 34.1817 4.00977C34.1371 4.14331 34.1018 4.27319 34.0757 4.3999C34.0496 4.52588 34.0365 4.64648 34.0365 4.76001C34.0365 4.95288 34.0772 5.09668 34.1586 5.19116C34.2401 5.28467 34.363 5.33228 34.5266 5.33228C34.7271 5.33228 34.926 5.27319 35.1227 5.1543C35.3193 5.03516 35.5052 4.88525 35.6796 4.70483C35.8539 4.52441 36.0045 4.33765 36.1304 4.14404L36.2971 4.20312C35.9998 4.62427 35.6772 4.95679 35.3277 5.2019C34.9798 5.44751 34.6049 5.56982 34.2039 5.56982ZM34.2823 3.75781C34.5419 3.58423 34.7946 3.38525 35.0397 3.16016C35.2847 2.93506 35.5128 2.70068 35.7249 2.45874C35.9369 2.21606 36.1243 1.98096 36.2871 1.75366C36.45 1.52637 36.5767 1.32202 36.6658 1.14136C36.7549 0.960938 36.7995 0.821045 36.7995 0.722168C36.7995 0.672852 36.7903 0.640625 36.7719 0.625244C36.7534 0.610596 36.7365 0.603027 36.7219 0.603027C36.6628 0.603027 36.5606 0.666016 36.4154 0.791992C36.271 0.917969 36.102 1.08765 35.9084 1.30054C35.7156 1.51318 35.519 1.75586 35.3185 2.02783C35.118 2.2998 34.9268 2.58472 34.7447 2.88208C34.5619 3.17847 34.4083 3.47119 34.2823 3.75781Z" fill="#3C4242" fill-opacity="1.000000" fill-rule="nonzero"/>
	<path id="Vector" d="M36.4427 5.69556C36.2122 5.69556 36.0171 5.64502 35.8581 5.54346C35.6984 5.44214 35.6185 5.28784 35.6185 5.07959C35.6185 4.90137 35.6776 4.70947 35.7967 4.50415C35.915 4.29907 36.0786 4.0957 36.2867 3.89502C36.4949 3.69458 36.7307 3.51172 36.9942 3.34595C37.2577 3.17993 37.5357 3.04785 37.8299 2.94873C38.1234 2.84961 38.4145 2.80054 38.7041 2.80054C38.9937 2.80054 39.2349 2.85132 39.4276 2.95264C39.6205 3.05396 39.7172 3.18921 39.7172 3.35742C39.7172 3.4812 39.6673 3.56567 39.5667 3.61011C39.4661 3.65479 39.3347 3.677 39.1711 3.677C39.1857 3.63696 39.1987 3.59399 39.2103 3.54712C39.2218 3.50024 39.2272 3.45728 39.2272 3.41724C39.2272 3.30371 39.1865 3.20605 39.105 3.12402C39.0229 3.04248 38.8823 3.00171 38.6818 3.00171C38.4736 3.00171 38.2624 3.05029 38.0465 3.14624C37.8315 3.24292 37.6233 3.37134 37.4228 3.53247C37.2223 3.69385 37.0441 3.86816 36.8882 4.0564C36.7323 4.24463 36.6101 4.43042 36.5203 4.61328C36.4312 4.79614 36.3866 4.95972 36.3866 5.10352C36.3866 5.29614 36.4865 5.39307 36.6877 5.39307C36.8582 5.39307 37.0441 5.34009 37.2446 5.23315C37.4451 5.1272 37.651 4.99048 37.863 4.82446C38.0742 4.65869 38.277 4.48657 38.4698 4.30835C38.6626 4.13013 38.8339 3.96655 38.9821 3.81836C39.0113 3.78833 39.0305 3.77368 39.0374 3.77368C39.082 3.77832 39.1396 3.78833 39.2103 3.80371C39.2809 3.81836 39.3424 3.83838 39.3939 3.86279C39.4461 3.88745 39.4722 3.91968 39.4722 3.95972C39.4722 4.00415 39.4384 4.06494 39.3716 4.1416C39.3047 4.21851 39.2303 4.30615 39.1488 4.40527C39.0666 4.50415 38.9929 4.60498 38.9261 4.7063C38.8592 4.80762 38.8262 4.90283 38.8262 4.99194C38.8262 5.06665 38.8554 5.1394 38.9153 5.21094C38.9745 5.2832 39.0712 5.31836 39.2049 5.31836C39.4054 5.31836 39.6689 5.22095 39.9953 5.02515C40.3217 4.82983 40.6528 4.53662 40.987 4.14478L41.0984 4.21924C40.9424 4.48657 40.7419 4.72168 40.4969 4.92432C40.2519 5.1272 39.9899 5.28613 39.7119 5.3999C39.4338 5.51367 39.1603 5.57031 38.893 5.57031C38.618 5.57031 38.416 5.51587 38.2862 5.40674C38.1564 5.29785 38.0911 5.17944 38.0911 5.05029C38.0911 5.02051 38.0949 4.9873 38.1026 4.95044C38.1095 4.91357 38.1172 4.87524 38.1249 4.83521C37.8054 5.12256 37.5142 5.33765 37.2508 5.48145C36.9865 5.62427 36.7169 5.69556 36.4427 5.69556Z" fill="#3C4242" fill-opacity="1.000000" fill-rule="nonzero"/>
	<path id="Vector" d="M41.9336 5.72583C41.5848 5.72583 41.3083 5.67505 41.104 5.57373C40.8997 5.47217 40.7552 5.34717 40.6692 5.19873C40.584 5.05054 40.541 4.90161 40.541 4.75342C40.541 4.60498 40.5709 4.49072 40.6301 4.41138C40.69 4.33228 40.7622 4.27319 40.8474 4.2334C40.9327 4.19336 41.0141 4.16406 41.0925 4.14429C41.1708 4.12427 41.2238 4.10425 41.2538 4.08496C41.4765 3.92139 41.6809 3.75098 41.8668 3.57275C42.0526 3.39453 42.2155 3.2063 42.3568 3.00806L42.3568 2.91895C42.3568 2.73608 42.4029 2.60571 42.4958 2.52881C42.5888 2.4519 42.6871 2.41357 42.7908 2.41357C42.85 2.41357 42.8945 2.42358 42.9245 2.4436C42.9544 2.46362 42.969 2.48584 42.969 2.51025C42.969 2.53491 42.9583 2.57495 42.936 2.62939C42.9137 2.68384 42.9022 2.75317 42.9022 2.83765C42.9022 3.00122 42.9506 3.17798 43.0466 3.36841C43.1434 3.55884 43.2394 3.75928 43.3362 3.96973C43.4322 4.18018 43.4806 4.39917 43.4806 4.62646C43.4806 4.69116 43.4752 4.75415 43.4637 4.81543C43.4529 4.87769 43.4361 4.9353 43.4138 4.98999C43.6734 4.95996 43.9184 4.88232 44.1489 4.75635C44.3793 4.63037 44.6021 4.42847 44.8172 4.15112L44.917 4.22559C44.7757 4.49756 44.5645 4.7041 44.2825 4.84546C44.0006 4.98682 43.6918 5.07446 43.3577 5.10889C43.2386 5.32178 43.0512 5.47778 42.7954 5.57666C42.5404 5.67651 42.2523 5.72583 41.9336 5.72583ZM41.9559 5.46606C42.045 5.46606 42.164 5.44629 42.3123 5.40698C42.4605 5.36694 42.5757 5.26562 42.6579 5.10278C42.3461 5.06372 42.0695 4.98145 41.8283 4.85767C41.5872 4.73413 41.4066 4.61035 41.2884 4.48682C41.1247 4.49219 41.0433 4.57812 41.0433 4.74634C41.0433 4.92456 41.1232 5.08887 41.283 5.24023C41.4412 5.39014 41.6663 5.46606 41.9559 5.46606ZM42.7132 4.98291C42.7278 4.93384 42.7393 4.88159 42.7463 4.82715C42.754 4.77246 42.7578 4.70801 42.7578 4.63428C42.7578 4.40161 42.7148 4.17041 42.6295 3.93994C42.5443 3.70947 42.472 3.49292 42.4121 3.29004C42.2416 3.47827 42.0611 3.65796 41.8721 3.82837C41.6832 3.99902 41.5027 4.14185 41.3321 4.25562C41.4435 4.41382 41.6163 4.56274 41.8499 4.70117C42.0841 4.84009 42.3714 4.93384 42.7132 4.98291Z" fill="#3C4242" fill-opacity="1.000000" fill-rule="nonzero"/>
	<path id="Vector" d="M45.7755 5.72583C45.4268 5.72583 45.1502 5.67505 44.9459 5.57373C44.7416 5.47217 44.5972 5.34717 44.5111 5.19873C44.4259 5.05054 44.3829 4.90161 44.3829 4.75342C44.3829 4.60498 44.4128 4.49072 44.472 4.41138C44.5319 4.33228 44.6041 4.27319 44.6894 4.2334C44.7746 4.19336 44.856 4.16406 44.9344 4.14429C45.0128 4.12427 45.0657 4.10425 45.0957 4.08496C45.3185 3.92139 45.5228 3.75098 45.7087 3.57275C45.8946 3.39453 46.0574 3.2063 46.1987 3.00806L46.1987 2.91895C46.1987 2.73608 46.2448 2.60571 46.3378 2.52881C46.4307 2.4519 46.529 2.41357 46.6327 2.41357C46.6919 2.41357 46.7365 2.42358 46.7664 2.4436C46.7964 2.46362 46.8109 2.48584 46.8109 2.51025C46.8109 2.53491 46.8002 2.57495 46.7779 2.62939C46.7556 2.68384 46.7441 2.75317 46.7441 2.83765C46.7441 3.00122 46.7925 3.17798 46.8885 3.36841C46.9853 3.55884 47.0813 3.75928 47.1781 3.96973C47.2741 4.18018 47.3225 4.39917 47.3225 4.62646C47.3225 4.69116 47.3171 4.75415 47.3056 4.81543C47.2949 4.87769 47.278 4.9353 47.2557 4.98999C47.5153 4.95996 47.7603 4.88232 47.9908 4.75635C48.2213 4.63037 48.444 4.42847 48.6591 4.15112L48.7589 4.22559C48.6176 4.49756 48.4064 4.7041 48.1245 4.84546C47.8426 4.98682 47.5338 5.07446 47.1996 5.10889C47.0806 5.32178 46.8931 5.47778 46.6374 5.57666C46.3831 5.67651 46.095 5.72583 45.7755 5.72583ZM45.7978 5.46606C45.8869 5.46606 46.006 5.44629 46.1542 5.40698C46.3024 5.36694 46.4177 5.26562 46.4998 5.10278C46.188 5.06372 45.9115 4.98145 45.6703 4.85767C45.4291 4.73413 45.2486 4.61035 45.1303 4.48682C44.9666 4.49219 44.8852 4.57812 44.8852 4.74634C44.8852 4.92456 44.9651 5.08887 45.1249 5.24023C45.2839 5.39014 45.5082 5.46606 45.7978 5.46606ZM46.5552 4.98291C46.5698 4.93384 46.5813 4.88159 46.5882 4.82715C46.5959 4.77246 46.5997 4.70801 46.5997 4.63428C46.5997 4.40161 46.5567 4.17041 46.4714 3.93994C46.3862 3.70947 46.314 3.49292 46.2541 3.29004C46.0835 3.47827 45.903 3.65796 45.7141 3.82837C45.5251 3.99902 45.3446 4.14185 45.174 4.25562C45.2854 4.41382 45.4583 4.56274 45.6918 4.70117C45.9261 4.84009 46.2141 4.93384 46.5552 4.98291Z" fill="#3C4242" fill-opacity="1.000000" fill-rule="nonzero"/>
	<path id="Vector" d="M48.9282 7.42627C48.7423 7.42627 48.5795 7.39307 48.4381 7.32642C48.2968 7.25952 48.2261 7.16187 48.2261 7.03296C48.2261 6.87476 48.286 6.7334 48.4043 6.60962C48.5226 6.48608 48.6824 6.37231 48.8837 6.26782C49.0841 6.16406 49.3138 6.06519 49.5742 5.9707C49.8338 5.87695 50.105 5.78247 50.3869 5.68872C50.4906 5.50586 50.5966 5.30151 50.7041 5.07642C50.8117 4.85132 50.9138 4.60254 51.0106 4.33057C50.7733 4.58789 50.519 4.80908 50.2479 4.99512C49.9767 5.18091 49.6887 5.27319 49.3845 5.27319C49.2431 5.27319 49.1041 5.25244 48.9666 5.21021C48.8291 5.16797 48.7162 5.10254 48.6271 5.01343C48.538 4.92432 48.4934 4.81079 48.4934 4.67163C48.4934 4.53345 48.5288 4.37207 48.5995 4.18921C48.6701 4.00659 48.7569 3.82837 48.8614 3.65479C48.9651 3.48193 49.0726 3.33813 49.1848 3.22363C49.2969 3.10938 49.3929 3.05322 49.4744 3.05322C49.5043 3.05322 49.5581 3.06079 49.6357 3.07544C49.714 3.09009 49.7878 3.11157 49.8584 3.13843C49.9291 3.16602 49.9644 3.19458 49.9644 3.22363C49.8976 3.28833 49.8231 3.37964 49.7417 3.49878C49.6595 3.61792 49.5804 3.75 49.502 3.89575C49.4244 4.04175 49.3591 4.18384 49.3069 4.323C49.2547 4.46118 49.2293 4.58032 49.2293 4.67944C49.2293 4.76855 49.2585 4.83984 49.3184 4.89453C49.3776 4.94897 49.482 4.97583 49.6303 4.97583C49.7708 4.97583 49.9291 4.93066 50.1035 4.83838C50.2778 4.74707 50.4522 4.62939 50.6273 4.48584C50.8017 4.34204 50.963 4.18848 51.112 4.02563C51.1343 3.97119 51.1543 3.91577 51.1735 3.85889C51.1919 3.80225 51.2088 3.74365 51.2234 3.68457C51.2457 3.61548 51.2994 3.53491 51.3847 3.44336C51.47 3.35205 51.6059 3.30591 51.791 3.30591C51.8279 3.30591 51.8648 3.30737 51.9024 3.30981C51.9393 3.31201 51.98 3.31812 52.0246 3.32812C52.0246 3.40723 51.9892 3.55493 51.9185 3.76978C51.8479 3.98486 51.7473 4.23682 51.6174 4.52344C51.4876 4.81079 51.3333 5.10498 51.155 5.40674C51.5038 5.31763 51.8456 5.17017 52.1797 4.96509C52.5139 4.76001 52.785 4.48584 52.9924 4.14478L53.1368 4.21924C53.0254 4.45654 52.8564 4.66333 52.6299 4.83911C52.4033 5.01514 52.149 5.16553 51.8671 5.29224C51.5852 5.41821 51.3063 5.52344 51.0313 5.60815C50.8386 5.92456 50.6288 6.22168 50.4023 6.49902C50.1757 6.77637 49.9383 7.00073 49.6894 7.17114C49.4421 7.34106 49.1878 7.42627 48.9282 7.42627ZM48.8721 7.18799C48.9835 7.18799 49.1709 7.09058 49.4344 6.89478C49.6979 6.69873 49.9782 6.3562 50.2755 5.86621C49.9713 5.9751 49.6887 6.08276 49.429 6.18945C49.1694 6.29541 48.9612 6.41064 48.8053 6.53516C48.6494 6.65894 48.5718 6.80249 48.5718 6.96606C48.5718 7.0061 48.5941 7.05298 48.6386 7.10742C48.6832 7.16113 48.7607 7.18799 48.8721 7.18799Z" fill="#3C4242" fill-opacity="1.000000" fill-rule="nonzero"/>
	<path id="Vector" d="M53.2267 5.42139C53.1299 5.42139 53.047 5.40527 52.9763 5.37305C52.9056 5.34082 52.8703 5.29004 52.8703 5.22095C52.8703 5.1665 52.9033 5.11572 52.9702 5.06885C53.037 5.02197 53.1207 4.98438 53.2206 4.95752C53.3204 4.93066 53.4188 4.91675 53.5155 4.91675C53.6046 4.91675 53.6753 4.92896 53.7268 4.95361C53.7782 4.97827 53.8044 5.02588 53.8044 5.09497C53.8044 5.14478 53.7767 5.19409 53.7206 5.24316C53.6646 5.29248 53.5923 5.33472 53.5032 5.36914C53.4142 5.40381 53.3235 5.42139 53.2267 5.42139Z" fill="#3C4242" fill-opacity="1.000000" fill-rule="nonzero"/>
</svg>
