<svg width="23.869629" height="44.069016" viewBox="0 0 23.8696 44.069" fill="none" xmlns="http://www.w3.org/2000/svg" xmlns:xlink="http://www.w3.org/1999/xlink">
	<desc>
			Created with Pixso.
	</desc>
	<defs/>
	<path id="Vector" d="M0.500732 0.497902C0.65918 0.340073 0.847168 0.214851 1.0542 0.129417C1.26147 0.0439758 1.4834 0 1.70752 0C1.93188 0 2.15381 0.0439758 2.36084 0.129417C2.56787 0.214851 2.7561 0.340073 2.91431 0.497902L23.3689 20.8351C23.5276 20.9925 23.6536 21.1795 23.7395 21.3854C23.8254 21.5913 23.8696 21.812 23.8696 22.035C23.8696 22.2579 23.8254 22.4786 23.7395 22.6845C23.6536 22.8904 23.5276 23.0774 23.3689 23.2348L2.91431 43.572C2.59424 43.8902 2.16016 44.069 1.70752 44.069C1.25488 44.069 0.820801 43.8902 0.500732 43.572C0.180664 43.2538 0.000976562 42.8222 0.000976562 42.3721C0.000976562 41.9221 0.180664 41.4904 0.500732 41.1722L19.752 22.035L0.500732 2.89768C0.342041 2.74026 0.216064 2.55324 0.130127 2.34734C0.0441895 2.14144 0 1.92072 0 1.69779C0 1.47488 0.0441895 1.25414 0.130127 1.04825C0.216064 0.842346 0.342041 0.655327 0.500732 0.497902Z" fill="#FFFFFF" fill-opacity="1.000000" fill-rule="evenodd"/>
</svg>
