<svg width="23.869629" height="44.069016" viewBox="0 0 23.8696 44.069" fill="none" xmlns="http://www.w3.org/2000/svg" xmlns:xlink="http://www.w3.org/1999/xlink">
	<desc>
			Created with Pixso.
	</desc>
	<defs/>
	<path id="Vector" d="M23.3689 43.5711C23.2104 43.7289 23.0225 43.8542 22.8154 43.9396C22.6082 44.025 22.3862 44.069 22.1621 44.069C21.9377 44.069 21.7158 44.025 21.5088 43.9396C21.3018 43.8542 21.1135 43.7289 20.9553 43.5711L0.500732 23.234C0.342041 23.0765 0.216064 22.8895 0.130127 22.6836C0.0441895 22.4777 0 22.257 0 22.0341C0 21.8111 0.0441895 21.5904 0.130127 21.3845C0.216064 21.1786 0.342041 20.9916 0.500732 20.8342L20.9553 0.497009C21.2754 0.17878 21.7095 0 22.1621 0C22.6147 0 23.0488 0.17878 23.3689 0.497009C23.689 0.815247 23.8687 1.24686 23.8687 1.6969C23.8687 2.14695 23.689 2.57857 23.3689 2.8968L4.11768 22.0341L23.3689 41.1713C23.5276 41.3288 23.6536 41.5158 23.7395 41.7217C23.8254 41.9276 23.8696 42.1483 23.8696 42.3712C23.8696 42.5941 23.8254 42.8149 23.7395 43.0208C23.6536 43.2267 23.5276 43.4137 23.3689 43.5711Z" fill="#FFFFFF" fill-opacity="1.000000" fill-rule="evenodd"/>
</svg>
